<svg width="800" height="800" viewBox="0 0 800 800" fill="none" xmlns="http://www.w3.org/2000/svg">
<rect x="432.255" y="280" width="97.5013" height="239.993" fill="#3168CF"/>
<path fill-rule="evenodd" clip-rule="evenodd" d="M432.255 515.369V515.131C432.32 426.128 504.49 353.998 593.507 353.998C682.565 353.998 754.76 426.193 754.76 515.25C754.76 517.007 754.731 518.757 754.676 520.5H432.339C432.285 518.796 432.257 517.086 432.255 515.369Z" fill="#009E48"/>
<rect x="271" y="280.507" width="97.5013" height="239.993" fill="#3168CF"/>
<path fill-rule="evenodd" clip-rule="evenodd" d="M46.0839 280C46.0281 281.743 46 283.493 46 285.25C46 374.307 118.195 446.502 207.252 446.502C296.309 446.502 368.504 374.307 368.504 285.25C368.504 283.493 368.476 281.743 368.42 280H46.0839Z" fill="#009E48"/>
</svg>
