<svg width="50" height="50" viewBox="0 0 142 82" fill="none" xmlns="http://www.w3.org/2000/svg">
<path d="M100.533 -0.00219727C88.031 -0.00219727 76.843 5.62167 69.3578 14.4805C72.8854 10.8235 77.1147 7.91593 81.7924 5.93194C86.4702 3.94796 91.5002 2.92834 96.5813 2.93416C117.484 2.93416 134.435 19.8854 134.435 40.7883C134.435 61.6912 117.484 78.6424 96.5813 78.6424C91.5002 78.6482 86.4702 77.6286 81.7924 75.6446C77.1147 73.6606 72.8854 70.7531 69.3578 67.096C76.843 75.9549 88.031 81.5788 100.533 81.5788C123.068 81.5788 141.333 63.3136 141.333 40.7883C141.333 18.2629 123.068 -0.00219727 100.533 -0.00219727Z" fill="#FF6B00"/>
<path d="M31.892 25.5803H34.3904C35.2351 25.5803 36.0453 25.2447 36.6426 24.6474C37.24 24.05 37.5756 23.2399 37.5756 22.3951C37.5756 21.5503 37.24 20.7402 36.6426 20.1428C36.0453 19.5455 35.2351 19.2099 34.3904 19.2099H31.9417C31.4619 19.2098 30.9884 19.3191 30.5572 19.5295C30.126 19.74 29.7485 20.046 29.4533 20.4242L29.4035 20.484C27.791 22.5544 29.2642 25.5803 31.892 25.5803ZM24.994 37.8433H45.0906C45.5232 37.8675 45.9562 37.8032 46.3631 37.6543C46.77 37.5055 47.1423 37.2751 47.4571 36.9774C47.7719 36.6798 48.0227 36.321 48.1941 35.923C48.3654 35.5251 48.4538 35.0964 48.4538 34.6631C48.4538 34.2298 48.3654 33.8011 48.1941 33.4032C48.0227 33.0052 47.7719 32.6464 47.4571 32.3487C47.1423 32.0511 46.77 31.8207 46.3631 31.6718C45.9562 31.523 45.5232 31.4587 45.0906 31.4829H24.994C24.5614 31.4587 24.1284 31.523 23.7215 31.6718C23.3146 31.8207 22.9424 32.0511 22.6276 32.3487C22.3128 32.6464 22.062 33.0052 21.8906 33.4032C21.7192 33.8011 21.6308 34.2298 21.6308 34.6631C21.6308 35.0964 21.7192 35.5251 21.8906 35.923C22.062 36.321 22.3128 36.6798 22.6276 36.9774C22.9424 37.2751 23.3146 37.5055 23.7215 37.6543C24.1284 37.8032 24.5614 37.8675 24.994 37.8433ZM12.9997 31.4829H3.16544C2.44278 31.483 1.74205 31.7312 1.18041 32.1859C0.618766 32.6407 0.230239 33.2744 0.0797787 33.9813C0.0797787 34.0111 0.0698249 34.031 0.0698249 34.0509C-0.0263912 34.5087 -0.0193007 34.9821 0.0905802 35.4368C0.200461 35.8915 0.410366 36.3159 0.705007 36.6792C0.999649 37.0425 1.37161 37.3355 1.7938 37.5369C2.21599 37.7383 2.67778 37.843 3.14553 37.8433H12.9997C13.4323 37.8675 13.8653 37.8032 14.2722 37.6543C14.6791 37.5055 15.0514 37.2751 15.3662 36.9774C15.681 36.6798 15.9318 36.321 16.1032 35.923C16.2745 35.5251 16.3629 35.0964 16.3629 34.6631C16.3629 34.2298 16.2745 33.8011 16.1032 33.4032C15.9318 33.0052 15.681 32.6464 15.3662 32.3487C15.0514 32.0511 14.6791 31.8207 14.2722 31.6718C13.8653 31.523 13.4323 31.4587 12.9997 31.4829ZM46.3747 25.5803H58.9363C59.7811 25.5803 60.5913 25.2447 61.1886 24.6474C61.7859 24.05 62.1215 23.2399 62.1215 22.3951C62.1215 21.5503 61.7859 20.7402 61.1886 20.1428C60.5913 19.5455 59.7811 19.2099 58.9363 19.2099H46.3747C45.5299 19.2099 44.7197 19.5455 44.1224 20.1428C43.5251 20.7402 43.1895 21.5503 43.1895 22.3951C43.1895 23.2399 43.5251 24.05 44.1224 24.6474C44.7197 25.2447 45.5299 25.5803 46.3747 25.5803ZM47.9076 56.0288H44.802C42.1742 56.0288 40.701 59.0448 42.3135 61.1152L42.3633 61.1749C42.6585 61.5532 43.036 61.8592 43.4672 62.0696C43.8984 62.2801 44.3719 62.3894 44.8518 62.3893H47.9076C48.7202 62.3438 49.4847 61.9889 50.0439 61.3975C50.6032 60.8061 50.9148 60.023 50.9148 59.209C50.9148 58.3951 50.6032 57.612 50.0439 57.0206C49.4847 56.4292 48.7202 56.0743 47.9076 56.0288ZM96.7606 7.6934C90.1901 7.68314 83.7668 9.63822 78.3163 13.3073H79.7198C81.3323 13.3073 82.686 14.5714 82.7357 16.174C82.7464 16.5689 82.6778 16.9619 82.534 17.3298C82.3902 17.6977 82.1741 18.0331 81.8985 18.3161C81.623 18.5991 81.2935 18.824 80.9295 18.9775C80.5655 19.131 80.1745 19.21 79.7795 19.2099H70.9206C70.0759 19.2099 69.2657 19.5455 68.6684 20.1428C68.071 20.7402 67.7354 21.5503 67.7354 22.3951C67.7354 23.2399 68.071 24.05 68.6684 24.6474C69.2657 25.2447 70.0759 25.5803 70.9206 25.5803H74.8325C76.445 25.5803 77.8086 26.8345 77.8484 28.447C77.8605 28.8422 77.7928 29.2358 77.6495 29.6043C77.5062 29.9729 77.2902 30.3088 77.0144 30.5921C76.7385 30.8754 76.4084 31.1002 76.0438 31.2533C75.6793 31.4063 75.2876 31.4844 74.8922 31.4829H57.075C56.2623 31.5284 55.4978 31.8832 54.9386 32.4746C54.3794 33.0661 54.0678 33.8491 54.0678 34.6631C54.0678 35.477 54.3794 36.2601 54.9386 36.8515C55.4978 37.443 56.2623 37.7978 57.075 37.8433H82.5566C84.1691 37.8433 85.5327 39.1074 85.5726 40.72C85.5846 41.1143 85.5172 41.5071 85.3745 41.875C85.2318 42.2429 85.0167 42.5783 84.7419 42.8615C84.4671 43.1446 84.1383 43.3697 83.7748 43.5233C83.4114 43.677 83.0208 43.756 82.6262 43.7558H73.7276C72.9149 43.8013 72.1505 44.1562 71.5912 44.7476C71.032 45.339 70.7204 46.1221 70.7204 46.9361C70.7204 47.75 71.032 48.5331 71.5912 49.1245C72.1505 49.7159 72.9149 50.0708 73.7276 50.1163H83.4126C85.0251 50.1163 86.3788 51.3804 86.4286 52.9929C86.4392 53.3878 86.3706 53.7808 86.2268 54.1487C86.083 54.5166 85.867 54.852 85.5914 55.135C85.3158 55.418 84.9863 55.6429 84.6223 55.7964C84.2584 55.9499 83.8673 56.029 83.4723 56.0288H59.8919C59.4593 56.0046 59.0263 56.0689 58.6194 56.2178C58.2125 56.3667 57.8403 56.597 57.5254 56.8947C57.2106 57.1924 56.9599 57.5512 56.7885 57.9491C56.6171 58.3471 56.5287 58.7758 56.5287 59.209C56.5287 59.6423 56.6171 60.071 56.7885 60.469C56.9599 60.8669 57.2106 61.2257 57.5254 61.5234C57.8403 61.8211 58.2125 62.0514 58.6194 62.2003C59.0263 62.3492 59.4593 62.4135 59.8919 62.3893H79.3515C80.964 62.3893 82.3177 63.6534 82.3675 65.2659C82.3767 65.6604 82.3072 66.0528 82.1629 66.4201C82.0186 66.7874 81.8025 67.1222 81.5272 67.405C81.2519 67.6877 80.9229 67.9126 80.5596 68.0666C80.1962 68.2206 79.8058 68.3006 79.4112 68.3018H78.3561C83.7987 71.9528 90.2068 73.897 96.7606 73.8859C115.036 73.8859 129.857 59.0647 129.857 40.7896C129.857 22.5145 115.036 7.6934 96.7606 7.6934ZM112.468 65.6143C112.164 65.8095 111.824 65.9404 111.468 65.999C111.113 66.0576 110.748 66.0425 110.399 65.9548C110.049 65.8672 109.721 65.7087 109.435 65.4892C109.148 65.2697 108.91 64.9938 108.735 64.6786L99.1992 47.4786L88.6682 64.9374C88.4806 65.2424 88.2326 65.5058 87.9395 65.7115C87.6465 65.9172 87.3145 66.0608 86.9639 66.1335C86.6133 66.2063 86.2516 66.2066 85.9008 66.1345C85.5501 66.0624 85.2179 65.9194 84.9244 65.7142C84.6309 65.5091 84.3825 65.2461 84.1944 64.9415C84.0062 64.6369 83.8822 64.2971 83.8302 63.9428C83.7781 63.5886 83.7989 63.2274 83.8914 62.8816C83.984 62.5357 84.1462 62.2123 84.3682 61.9314L97.8854 45.0996L95.9643 41.6457C95.0187 39.9336 93.1673 38.9681 91.2263 39.0676C89.0763 39.1871 86.8267 37.9926 84.6568 34.6283C81.3223 29.4523 79.4311 21.121 82.4769 19.1502C85.5228 17.1793 92.3411 22.3453 95.6756 27.5213C97.8455 30.8757 98.0148 33.4239 97.0194 35.325C96.5736 36.1695 96.3745 37.1224 96.4449 38.0747C96.5153 39.027 96.8524 39.9403 97.4175 40.71L113.144 61.8418C113.359 62.13 113.512 62.459 113.594 62.8086C113.676 63.1583 113.686 63.5211 113.623 63.8746C113.559 64.2281 113.424 64.5649 113.225 64.8641C113.027 65.1633 112.769 65.4186 112.468 65.6143ZM116.439 32.0403C114.14 35.325 111.532 40.0033 107.103 39.9734C105.152 39.9635 103.28 40.71 102.275 42.3723L101.16 44.2237L99.9159 42.5614L100.862 41.3869C102.086 39.8639 102.136 37.8533 101.449 36.0317C99.896 31.891 103.39 27.8199 105.689 24.5351C107.212 22.3453 110.377 18.7819 111.661 18.5529L103.111 30.7961C103.01 30.9461 102.97 31.1298 103.002 31.3081C103.034 31.4865 103.133 31.6456 103.28 31.7516C103.429 31.8557 103.614 31.8964 103.793 31.8647C103.972 31.8329 104.131 31.7314 104.236 31.5824L112.945 19.1004C113.046 18.9596 113.19 18.856 113.356 18.8057C113.522 18.7553 113.699 18.7609 113.861 18.8217H113.871C113.98 18.8641 114.079 18.9307 114.159 19.0165C114.238 19.1023 114.298 19.2051 114.332 19.3172C114.367 19.4293 114.375 19.5477 114.358 19.6635C114.34 19.7794 114.296 19.8898 114.229 19.9863L105.52 32.4782C105.469 32.5514 105.433 32.634 105.414 32.7211C105.395 32.8082 105.393 32.8983 105.409 32.9861C105.424 33.0739 105.457 33.1578 105.505 33.2329C105.553 33.308 105.616 33.3729 105.689 33.4239C105.762 33.4748 105.845 33.5109 105.932 33.53C106.019 33.5491 106.109 33.5508 106.197 33.5351C106.285 33.5194 106.369 33.4865 106.444 33.4384C106.519 33.3903 106.584 33.3278 106.635 33.2546L115.484 20.5835C115.6 20.4153 115.779 20.3 115.98 20.2627C116.181 20.2254 116.389 20.2692 116.559 20.3844H116.578C116.662 20.4421 116.733 20.5159 116.788 20.6013C116.843 20.6868 116.88 20.7824 116.898 20.8824C116.916 20.9824 116.913 21.0849 116.891 21.184C116.868 21.2831 116.826 21.3767 116.768 21.4594L107.919 34.1405C107.815 34.2897 107.774 34.4741 107.806 34.6533C107.837 34.8325 107.939 34.9917 108.088 35.0961C108.238 35.1976 108.422 35.2368 108.6 35.2052C108.778 35.1736 108.937 35.0738 109.044 34.9269L117.753 22.4449C117.822 22.3497 117.912 22.2713 118.015 22.2153C118.119 22.1594 118.233 22.1274 118.351 22.1217C118.468 22.1159 118.586 22.1366 118.694 22.1822C118.802 22.2278 118.899 22.2972 118.977 22.3851H118.987C119.098 22.5175 119.163 22.6823 119.172 22.8546C119.181 23.0269 119.133 23.1975 119.037 23.3407L110.318 35.8327C110.266 35.9058 110.23 35.9883 110.211 36.0755C110.191 36.1626 110.19 36.2528 110.205 36.3407C110.221 36.4286 110.254 36.5125 110.302 36.5876C110.351 36.6627 110.413 36.7275 110.487 36.7783C110.636 36.8824 110.82 36.923 111 36.8913C111.179 36.8596 111.338 36.7581 111.442 36.6091L119.993 24.3659C120.222 25.65 117.962 29.8505 116.439 32.0403ZM30.2197 43.7558H19.3801C18.9113 43.7559 18.4485 43.8607 18.0254 44.0627C17.6023 44.2646 17.2298 44.5586 16.9349 44.9231C16.6401 45.2876 16.4305 45.7133 16.3214 46.1693C16.2123 46.6252 16.2065 47.0997 16.3044 47.5582C16.3044 47.5781 16.3143 47.598 16.3143 47.6179C16.4631 48.3256 16.8512 48.9604 17.4132 49.4155C17.9752 49.8705 18.6769 50.118 19.4 50.1163H30.2197C31.0324 50.0708 31.7969 49.7159 32.3561 49.1245C32.9153 48.5331 33.227 47.75 33.227 46.9361C33.227 46.1221 32.9153 45.339 32.3561 44.7476C31.7969 44.1562 31.0324 43.8013 30.2197 43.7558ZM61.7433 50.1163C62.1759 50.1405 62.6089 50.0762 63.0158 49.9273C63.4226 49.7784 63.7949 49.5481 64.1097 49.2504C64.4245 48.9527 64.6753 48.5939 64.8467 48.196C65.0181 47.7981 65.1065 47.3693 65.1065 46.9361C65.1065 46.5028 65.0181 46.0741 64.8467 45.6761C64.6753 45.2782 64.4245 44.9194 64.1097 44.6217C63.7949 44.324 63.4226 44.0937 63.0158 43.9448C62.6089 43.7959 62.1759 43.7316 61.7433 43.7558H42.2041C41.7715 43.7316 41.3385 43.7959 40.9316 43.9448C40.5247 44.0937 40.1524 44.324 39.8376 44.6217C39.5228 44.9194 39.272 45.2782 39.1007 45.6761C38.9293 46.0741 38.8409 46.5028 38.8409 46.9361C38.8409 47.3693 38.9293 47.7981 39.1007 48.196C39.272 48.5939 39.5228 48.9527 39.8376 49.2504C40.1524 49.5481 40.5247 49.7784 40.9316 49.9273C41.3385 50.0762 41.7715 50.1405 42.2041 50.1163H61.7433Z" fill="#FF6B00"/>
</svg>
